<svg xmlns="http://www.w3.org/2000/svg" width="364" height="364" fill="none" viewBox="0 0 364 364"><g id="film-fanatic"><g id="logo"><path id="Vector" fill="url(#paint0_linear_1_9)" d="M223.925 77.3404L210.534 90.7315C209.817 91.4489 209.818 92.4061 210.536 93.1244L284.524 167.112C292.665 175.254 292.674 188.653 284.544 196.784L210.653 270.674C209.936 271.392 209.936 272.349 210.655 273.067L224.064 286.476C233.641 296.054 248.956 296.064 258.521 286.499L345.802 199.217C355.367 189.652 355.357 174.338 345.779 164.76L258.143 77.1237C248.805 67.7854 233.491 67.7753 223.925 77.3404ZM153.584 90.6939L140.176 77.285C130.598 67.7073 115.284 67.6972 105.718 77.2623L18.1978 164.783C8.63275 174.348 8.64287 189.662 18.2206 199.24L105.857 286.876C115.435 296.454 130.749 296.464 140.314 286.899L153.944 273.269C154.662 272.551 154.661 271.594 153.943 270.876L79.9547 196.888C71.8136 188.747 71.8047 175.347 79.9351 167.217L153.825 93.3262C154.303 92.3694 154.303 91.4122 153.584 90.6939Z"/><path id="Vector_2" fill="url(#paint1_linear_1_9)" d="M180.764 119.993L136.286 164.471C126.721 174.036 126.731 189.35 136.309 198.928L180.606 243.225C181.324 243.944 182.281 243.944 182.999 243.227L227.715 198.51C237.28 188.945 237.27 173.631 227.693 164.053L183.156 119.516C182.438 119.277 181.481 119.276 180.764 119.993Z"/></g></g><defs><linearGradient id="paint0_linear_1_9" x1="181.88" x2="181.641" y1=".981" y2="363.019" gradientUnits="userSpaceOnUse"><stop offset=".05" stop-color="#67D7FE"/><stop offset=".95" stop-color="#6F6EF9"/></linearGradient><linearGradient id="paint1_linear_1_9" x1="181.761" x2="181.522" y1=".591" y2="362.629" gradientUnits="userSpaceOnUse"><stop offset=".05" stop-color="#67D7FE"/><stop offset=".95" stop-color="#6F6EF9"/></linearGradient></defs></svg>