<svg xmlns="http://www.w3.org/2000/svg" width="289.83" height="289.83" viewBox="0 0 248 264" version="1.1"><path d="M 79.269 16.351 C 75.292 18.633, 72.029 20.793, 72.019 21.150 C 72.009 21.508, 74.968 25.477, 78.596 29.970 C 82.225 34.464, 85.007 38.326, 84.780 38.553 C 84.553 38.780, 82.825 38.523, 80.940 37.983 C 75.502 36.423, 64.707 36.835, 58.235 38.850 C 49.284 41.636, 37 50.478, 37 54.135 C 37 54.611, 39.813 55.039, 43.250 55.086 C 46.688 55.133, 53.550 55.699, 58.500 56.342 L 67.500 57.513 63.002 58.871 C 54.915 61.312, 26.643 76.630, 26.773 78.500 C 26.891 80.208, 40.036 83.140, 50.138 83.712 C 62.283 84.398, 68.209 82.699, 77.094 75.980 C 82.748 71.705, 83.676 71.309, 85 72.606 C 87.607 75.161, 86.951 85.625, 83.835 91.188 C 82.391 93.767, 81.463 96.129, 81.772 96.438 C 82.765 97.432, 87.425 97.040, 93.530 95.450 C 105.725 92.274, 113.617 84.540, 116.132 73.301 C 117.206 68.502, 117.595 67.929, 119.425 68.453 C 131.853 72.015, 135.154 71.725, 160.282 64.858 C 173.335 61.290, 176.255 60.817, 182.678 61.230 C 186.741 61.490, 190.258 61.392, 190.494 61.010 C 191.373 59.588, 184.282 53.999, 178 51.163 C 168.154 46.718, 157.272 44.618, 143.750 44.555 C 130.774 44.494, 130.250 44.174, 133.946 38.567 C 136.191 35.163, 139.523 33.086, 142.823 33.035 C 146.376 32.981, 145.183 30.075, 140.159 26.544 C 136.140 23.720, 135.203 23.500, 127.164 23.500 C 116.775 23.500, 111.518 25.646, 104.520 32.745 C 102.033 35.267, 99.856 37.144, 99.683 36.916 C 99.509 36.687, 96.922 30.988, 93.933 24.252 C 90.945 17.515, 88.050 12.048, 87.500 12.103 C 86.950 12.157, 83.246 14.069, 79.269 16.351" stroke="none" fill="#0a9731" fill-rule="evenodd"/><path d="M 159.500 64.995 C 135.802 71.656, 131.802 72.001, 119.425 68.453 C 117.595 67.929, 117.206 68.502, 116.132 73.301 C 113.617 84.540, 105.725 92.274, 93.530 95.450 C 87.425 97.040, 82.765 97.432, 81.772 96.438 C 81.463 96.129, 82.391 93.767, 83.835 91.188 C 86.951 85.625, 87.607 75.161, 85 72.606 C 83.676 71.309, 82.752 71.702, 77.126 75.956 C 73.620 78.607, 68.506 81.502, 65.761 82.388 C 59.906 84.279, 49.289 84.471, 40.470 82.846 L 34.209 81.693 30.854 85.467 C 23.630 93.595, 16.170 107.414, 12.974 118.591 C 8.601 133.883, 7.973 157.218, 11.554 171.340 C 17.489 194.745, 29.146 212.471, 47.817 226.484 C 90.935 258.844, 155.128 258.969, 199.201 226.778 C 207.180 220.950, 219.973 207.620, 224.769 200.137 C 230.099 191.820, 234.747 181.315, 237.217 172 C 239.169 164.635, 239.458 161.162, 239.380 146 C 239.297 129.997, 239.057 127.730, 236.578 119.505 C 229.306 95.378, 215.151 75.721, 196.951 64.475 C 192.518 61.736, 191.180 61.432, 182.778 61.256 C 174.667 61.085, 171.739 61.556, 159.500 64.995" stroke="none" fill="#fb340c" fill-rule="evenodd"/></svg>