<svg xmlns="http://www.w3.org/2000/svg" width="247" height="242" viewBox="0 0 247 242" version="1.1"><path d="M 92.500 7.973 C 76.890 11.388, 66.708 22.892, 65.237 38.776 C 64.373 48.099, 67.994 54.316, 79.667 63.556 C 94.087 74.969, 99.231 81.971, 99.231 90.186 C 99.231 98.620, 94.194 103.482, 85.585 103.357 C 79.979 103.276, 73.806 100.635, 70.371 96.847 C 69.201 95.556, 65.774 90.675, 62.757 86 C 53.963 72.372, 47.851 68.080, 36.035 67.235 C 19.392 66.044, 6.123 76.257, 5.837 90.477 C 5.542 105.172, 17.758 116.180, 39.673 120.967 C 61.460 125.726, 70.800 132.762, 66.846 141.438 C 64.875 145.765, 61.028 146.532, 43.156 146.159 L 26.811 145.818 20.519 148.916 C 14.281 151.987, 11.019 155.250, 7.441 162 C 4.624 167.314, 4.767 181.108, 7.696 186.595 C 14.778 199.859, 32.483 205.437, 46.169 198.716 C 50.462 196.608, 54.531 193.054, 62.930 184.075 C 74.411 171.801, 78.374 169, 84.253 169 C 88.752 169, 94.134 172.686, 95.204 176.500 C 96.246 180.210, 95.663 183.685, 91.793 196.852 C 86.449 215.034, 89.092 227.297, 99.822 234.102 C 106.311 238.217, 111.146 239.281, 121.194 238.803 C 129.088 238.427, 130.344 238.078, 134.840 235.010 C 143.091 229.380, 147.811 219.937, 146.642 211.402 C 146.331 209.137, 143.810 202.648, 141.039 196.981 C 137.060 188.845, 136 185.639, 136 181.743 C 136 175.496, 138.333 171.484, 143.069 169.589 C 150.294 166.698, 154.684 169.692, 166.862 185.815 C 177.914 200.447, 185.793 207.800, 195.634 212.663 C 202.578 216.095, 204.167 216.476, 213.033 216.832 C 224.439 217.290, 228.080 216.335, 233.894 211.358 C 240.067 206.075, 243.227 199.171, 243.793 189.734 C 244.222 182.574, 244.016 181.474, 241.146 175.645 C 234.501 162.147, 221.347 153.745, 200.851 149.907 C 174.764 145.023, 166.259 141.966, 162.250 136.034 C 159.630 132.157, 159.243 125.356, 161.405 121.200 C 165.295 113.723, 171.718 111.178, 189.834 109.935 C 205.435 108.864, 209.585 107.397, 215.615 100.824 C 221.875 93.999, 224.277 86.568, 223.809 75.476 C 223.468 67.405, 223.053 65.767, 219.885 59.976 C 211.718 45.046, 195.178 39.878, 179.937 47.493 C 169.441 52.738, 165.119 58.803, 159.838 75.695 C 156.611 86.019, 153.514 90.407, 147.541 93.120 C 138.945 97.025, 130.437 94.740, 125.324 87.153 C 121.371 81.287, 121.398 76.699, 125.483 59.936 C 132.569 30.856, 129.455 18.395, 113.004 10.002 C 108.349 7.627, 98.523 6.655, 92.500 7.973" stroke="none" fill="#0dcc55" fill-rule="evenodd"/></svg>