<?xml version="1.0" standalone="no"?>
<!DOCTYPE svg PUBLIC "-//W3C//DTD SVG 20010904//EN"
 "http://www.w3.org/TR/2001/REC-SVG-20010904/DTD/svg10.dtd">
<svg version="1.0" xmlns="http://www.w3.org/2000/svg"
 width="700.000000pt" height="700.000000pt" viewBox="0 0 700.000000 700.000000"
 preserveAspectRatio="xMidYMid meet">
<metadata>
Created by potrace 1.14, written by Peter Selinger 2001-2017
</metadata>
<g transform="translate(0.000000,700.000000) scale(0.100000,-0.100000)"
fill="#000000" stroke="none">
<path d="M2272 5639 c-23 -4 -70 -20 -105 -35 -58 -26 -121 -87 -965 -928
-848 -847 -905 -905 -937 -971 -67 -136 -66 -275 1 -412 33 -69 79 -117 927
-967 881 -883 893 -895 971 -932 71 -35 88 -39 176 -42 109 -5 183 11 260 55
53 31 370 340 370 362 0 9 -337 353 -749 766 -855 857 -795 784 -795 965 0
179 -58 108 791 964 408 412 743 756 743 766 0 25 -316 331 -376 362 -93 50
-210 67 -312 47z"/>
<path d="M4570 5643 c-44 -7 -144 -45 -185 -71 -43 -27 -320 -295 -336 -325
-9 -15 105 -134 728 -762 572 -577 744 -756 766 -797 39 -74 54 -170 40 -250
-22 -133 3 -103 -801 -909 -409 -411 -743 -752 -741 -758 3 -7 76 -84 164
-172 129 -129 173 -166 227 -193 139 -70 277 -70 421 1 68 34 120 83 958 922
860 859 888 888 923 961 64 135 67 270 9 405 -24 55 -98 132 -927 962 -724
726 -911 908 -957 932 -89 48 -199 69 -289 54z"/>
<path d="M3033 4248 c-248 -249 -463 -473 -478 -497 -81 -132 -90 -297 -23
-445 30 -67 56 -95 482 -524 248 -250 459 -458 470 -464 16 -9 77 48 473 443
249 250 467 474 483 499 88 136 97 309 24 460 -35 71 -62 101 -488 528 -301
302 -457 452 -471 452 -14 0 -170 -150 -472 -452z"/>
</g>
</svg>
